<?xml version="1.0" encoding="utf-8"?>
<!-- Generator: Adobe Illustrator 22.0.1, SVG Export Plug-In . SVG Version: 6.00 Build 0)  -->
<svg version="1.1" id="Calque_2_1_" xmlns="http://www.w3.org/2000/svg" xmlns:xlink="http://www.w3.org/1999/xlink" x="0px"
	 y="0px" viewBox="0 0 60 60" style="enable-background:new 0 0 60 60;" xml:space="preserve">
<style type="text/css">
	.st0{fill:#F6A019;}
</style>
<g id="SvgjsSvg1001" xmlns:svgjs="http://svgjs.com/svgjs">
	<path class="st0" d="M30,13.1c-8.1,0-14.7,6.6-14.7,14.7S30,51.1,30,51.1s14.7-15.3,14.7-23.4S38.1,13.1,30,13.1z M26.9,36.5h-3.3
		V20.2h3.3V36.5z M39.8,28.1c-0.4,0.8-1,1.4-1.7,1.9c-0.8,0.5-1.6,0.7-2.6,0.7h-3v5.9h-3.3V20.2h6.2c1,0,1.8,0.2,2.6,0.7
		s1.4,1.1,1.7,1.8s0.6,1.7,0.6,2.7C40.4,26.5,40.2,27.4,39.8,28.1z M36.3,23.7c-0.2-0.2-0.5-0.2-0.8-0.2h-3v3.9h3
		c0.3,0,0.6-0.1,0.8-0.2c0.2-0.2,0.4-0.4,0.5-0.6c0.2-0.3,0.2-0.7,0.2-1.1s-0.1-0.8-0.2-1.1C36.8,24.1,36.6,23.9,36.3,23.7z"/>
</g>
</svg>
