<?xml version="1.0" encoding="utf-8"?>
<!-- Generator: Adobe Illustrator 22.0.1, SVG Export Plug-In . SVG Version: 6.00 Build 0)  -->
<svg version="1.1" id="Calque_2_1_" xmlns="http://www.w3.org/2000/svg" xmlns:xlink="http://www.w3.org/1999/xlink" x="0px"
	 y="0px" viewBox="0 0 48 48" style="enable-background:new 0 0 48 48;" xml:space="preserve">
<style type="text/css">
	.st0{fill:none;}
	.st1{fill:#F0F0F0;}
</style>
<g>
	<g>
		<line class="st0" x1="23.1" y1="19.7" x2="23.1" y2="19.3"/>
	</g>
</g>
<g>
	<g>
		<line class="st0" x1="26.6" y1="22.7" x2="26.1" y2="22.7"/>
	</g>
</g>
<g>
	<g>
		<g>
			<path class="st1" d="M13.5,39.2c0,2.6-2.1,4.7-4.7,4.7s-4.7-2.1-4.7-4.7s2.1-4.7,4.7-4.7C11.4,34.5,13.5,36.7,13.5,39.2z"/>
		</g>
	</g>
	<g>
		<g>
			<path class="st1" d="M24.2,39.9v1.4H18v-1.4c0-1.1-0.1-2.2-0.6-3.3c-0.8-2.5-2.6-4.4-5-5.5c-1.4-0.6-2.8-1-4.2-1H6.9v-6.2h1.4
				c2.4,0,4.7,0.6,6.8,1.5c3.9,1.8,6.8,5,8.3,9l0,0C23.8,36.3,24.2,38.1,24.2,39.9z"/>
		</g>
	</g>
	<g>
		<g>
			<path class="st1" d="M34.1,39.9v1.4h-6.2v-1.4c0-0.6,0-1.1-0.1-1.8c-0.4-4-1.9-7.8-4.4-10.7c-0.8-1-1.8-1.9-2.8-2.8
				C17,21.9,12.7,20,8,20l0,0H6.6v-6.2H8c6.1,0,11.9,2.1,16.6,6.1c5.4,4.6,8.7,10.8,9.4,17.8C34.1,38.4,34.1,39.2,34.1,39.9z"/>
		</g>
	</g>
	<g>
		<g>
			<path class="st1" d="M43.9,39.9v1.4h-6.2v-1.4c0-16.4-13.3-29.5-29.5-29.5H6.7V4.1h1.4C28,4.1,43.9,20.2,43.9,39.9z"/>
		</g>
	</g>
</g>
</svg>
