<?xml version="1.0" encoding="utf-8"?>
<!-- Generator: Adobe Illustrator 22.0.1, SVG Export Plug-In . SVG Version: 6.00 Build 0)  -->
<svg version="1.1" id="Calque_2_1_" xmlns="http://www.w3.org/2000/svg" xmlns:xlink="http://www.w3.org/1999/xlink" x="0px"
	 y="0px" viewBox="0 0 48 48" style="enable-background:new 0 0 48 48;" xml:space="preserve">
<style type="text/css">
	.st0{fill:#F6A019;}
</style>
<g>
	<g>
		<g>
			<path class="st0" d="M16.1,33.1c0,1.9-1.5,3.4-3.4,3.4S9.3,35,9.3,33.1c0-1.9,1.5-3.4,3.4-3.4C14.6,29.7,16.1,31.3,16.1,33.1z"/>
		</g>
	</g>
	<g>
		<g>
			<path class="st0" d="M23.8,33.6v1h-4.5v-1c0-0.8-0.1-1.6-0.4-2.4c-0.6-1.8-1.9-3.2-3.6-4c-1-0.4-2-0.7-3-0.7h-1V22h1
				c1.7,0,3.4,0.4,4.9,1.1c2.8,1.3,4.9,3.6,6,6.5l0,0C23.5,31,23.8,32.3,23.8,33.6z"/>
		</g>
	</g>
	<g>
		<g>
			<path class="st0" d="M30.9,33.6v1h-4.5v-1c0-0.4,0-0.8-0.1-1.3c-0.3-2.9-1.4-5.6-3.2-7.7c-0.6-0.7-1.3-1.4-2-2
				c-2.5-2-5.6-3.3-9-3.3l0,0h-1v-4.5h1c4.4,0,8.6,1.5,12,4.4C28,22.5,30.4,27,30.9,32C30.9,32.5,30.9,33.1,30.9,33.6z"/>
		</g>
	</g>
	<g>
		<g>
			<path class="st0" d="M38,33.6v1h-4.5v-1c0-11.8-9.6-21.3-21.3-21.3h-1V7.8h1C26.5,7.8,38,19.4,38,33.6z"/>
		</g>
	</g>
</g>
<g>
	<g>
		<line class="st0" x1="23.1" y1="19.7" x2="23.1" y2="19.3"/>
	</g>
</g>
<g>
	<g>
		<line class="st0" x1="26.6" y1="22.7" x2="26.1" y2="22.7"/>
	</g>
</g>
</svg>
