<?xml version="1.0" encoding="utf-8"?>
<!-- Generator: Adobe Illustrator 22.0.1, SVG Export Plug-In . SVG Version: 6.00 Build 0)  -->
<svg version="1.1" id="Calque_1" xmlns="http://www.w3.org/2000/svg" xmlns:xlink="http://www.w3.org/1999/xlink" x="0px" y="0px"
	 viewBox="0 0 60 60" style="enable-background:new 0 0 60 60;" xml:space="preserve">
<style type="text/css">
	.st0{fill:#F0F0F0;}
</style>
<g id="Calque_2_1_">
</g>
<g id="SvgjsSvg1001_1_" xmlns:svgjs="http://svgjs.com/svgjs">
	<path class="st0" d="M30,4.6c-10.8,0-19.6,8.8-19.6,19.6S30,55.4,30,55.4s19.6-20.4,19.6-31.2S40.8,4.6,30,4.6z M25.9,35.9h-4.4
		V14.1h4.4V35.9z M43.1,24.7c-0.5,1.1-1.3,1.9-2.3,2.5c-1.1,0.7-2.1,0.9-3.5,0.9h-4V36h-4.4V14.1h8.3c1.3,0,2.4,0.3,3.5,0.9
		s1.9,1.5,2.3,2.4c0.4,0.9,0.8,2.3,0.8,3.6C43.9,22.5,43.6,23.7,43.1,24.7z M38.4,18.8c-0.3-0.3-0.7-0.3-1.1-0.3h-4v5.2h4
		c0.4,0,0.8-0.1,1.1-0.3c0.3-0.3,0.5-0.5,0.7-0.8c0.3-0.4,0.3-0.9,0.3-1.5s-0.1-1.1-0.3-1.5C39.1,19.3,38.8,19.1,38.4,18.8z"/>
</g>
</svg>
