<?xml version="1.0" encoding="utf-8"?>
<!-- Generator: Adobe Illustrator 22.0.1, SVG Export Plug-In . SVG Version: 6.00 Build 0)  -->
<svg version="1.1" xmlns="http://www.w3.org/2000/svg" xmlns:xlink="http://www.w3.org/1999/xlink" x="0px" y="0px"
	 viewBox="0 0 60 60" style="enable-background:new 0 0 60 60;" xml:space="preserve">
<style type="text/css">
	.st0{display:none;}
	.st1{display:inline;}
	.st2{fill:#FFFFFF;}
	.st3{fill:#F0F0F0;}
</style>
<g id="Calque_2">
</g>
<g id="Calque_1">
	<g id="Calque_2_1_" class="st0">
		<g class="st1">
			<g>
				<rect x="21.7" y="16.5" class="st2" width="4.3" height="21.4"/>
			</g>
			<g>
				<path class="st2" d="M42.9,19.8c-0.5-1-1.3-1.9-2.3-2.4c-1-0.6-2.1-0.9-3.4-0.9H29v21.4h4.3v-7.7h3.9c1.3,0,2.4-0.3,3.4-0.9
					s1.8-1.4,2.3-2.4s0.8-2.2,0.8-3.6C43.7,22,43.4,20.8,42.9,19.8z M37.3,20.8c0.4,0,0.8,0.1,1.1,0.3c0.3,0.2,0.5,0.5,0.7,0.9
					s0.3,0.9,0.3,1.4s-0.1,1-0.3,1.4s-0.4,0.7-0.7,0.8c-0.3,0.2-0.7,0.3-1.1,0.3h-4v-5.2h4V20.8z"/>
			</g>
		</g>
	</g>
	<g id="SvgjsSvg1001" xmlns:svgjs="http://svgjs.com/svgjs">
		<path class="st3" d="M30,13.1c-8.1,0-14.7,6.6-14.7,14.7S30,51.1,30,51.1s14.7-15.3,14.7-23.4S38.1,13.1,30,13.1z M26.9,36.5h-3.3
			V20.2h3.3C26.9,20.2,26.9,36.5,26.9,36.5z M39.8,28.1c-0.4,0.8-1,1.4-1.7,1.9c-0.8,0.5-1.6,0.7-2.6,0.7h-3v5.9h-3.3V20.2h6.2
			c1,0,1.8,0.2,2.6,0.7c0.8,0.5,1.4,1.1,1.7,1.8s0.6,1.7,0.6,2.7C40.4,26.5,40.2,27.4,39.8,28.1z M36.3,23.7
			c-0.2-0.2-0.5-0.2-0.8-0.2h-3v3.9h3c0.3,0,0.6-0.1,0.8-0.2c0.2-0.2,0.4-0.4,0.5-0.6c0.2-0.3,0.2-0.7,0.2-1.1
			c0-0.4-0.1-0.8-0.2-1.1C36.8,24.1,36.6,23.9,36.3,23.7z"/>
	</g>
</g>
</svg>
